<svg width="487.5000122070312px" height="131.79998779296875px" xmlns="http://www.w3.org/2000/svg" viewBox="6.249993896484398 9.100006103515625 487.5000122070312 131.79998779296875" style="background: rgba(0, 0, 0, 0) none repeat scroll 0% 0%;" preserveAspectRatio="xMidYMid"><defs><filter id="editing-extrusion" x="-100%" y="-100%" width="300%" height="300%"><feFlood result="color1" flood-color="#6e4a4a"></feFlood><feConvolveMatrix order="8,8" divisor="1" kernelMatrix="1 0 0 0 0 0 0 0 0 1 0 0 0 0 0 0 0 0 1 0 0 0 0 0 0 0 0 1 0 0 0 0 0 0 0 0 1 0 0 0 0 0 0 0 0 1 0 0 0 0 0 0 0 0 1 0 0 0 0 0 0 0 0 1" in="SourceAlpha" result="extrude"></feConvolveMatrix><feComposite in="color1" in2="extrude" result="comp-extrude" operator="in"></feComposite><feOffset dx="4" dy="4" in="comp-extrude" result="offset-extrude"></feOffset><feMerge><feMergeNode in="offset-extrude"></feMergeNode><feMergeNode in="SourceGraphic"></feMergeNode></feMerge></filter></defs><g filter="url(#editing-extrusion)"><g transform="translate(81.87528133392334, 107.63999938964844)"><path d="M6.91-45.57L6.91-45.57L16.13-45.06L16.13-45.06Q22.27-45.06 24.96-46.53L24.96-46.53L24.96-46.53Q25.34-46.78 25.63-46.78L25.63-46.78L25.63-46.78Q25.92-46.78 25.92-45.89L25.92-45.89L25.92-45.89Q25.92-44.99 24.83-42.94L24.83-42.94L24.83-42.94Q23.23-39.81 20.22-39.81L20.22-39.81L16.70-39.87L16.70-39.87Q16.19-39.87 16.06-39.30L16.06-39.30L16.06-39.30Q15.62-29.89 15.62-18.98L15.62-18.98L15.62-18.98Q15.62-8.06 16.51-2.56L16.51-2.56L16.51-2.24L16.51-2.24Q16.51-0.64 13.47 0.32L13.47 0.32L13.47 0.32Q10.43 1.28 7.74 1.28L7.74 1.28L7.74 1.28Q6.46 1.28 6.46 0.58L6.46 0.58L6.46 0.58Q6.46 0.38 6.66-0.32L6.66-0.32L6.66-0.32Q7.36-1.73 7.90-13.95L7.90-13.95L7.90-13.95Q8.45-26.18 8.45-32.38L8.45-32.38L8.32-39.36L8.32-39.36Q8.32-39.74 7.94-39.81L7.94-39.81L7.94-39.81Q6.59-40.06 4.86-40.06L4.86-40.06L4.86-40.06Q1.41-40.06-0.26-38.66L-0.26-38.66L-0.26-38.66Q-0.70-38.34-1.12-38.34L-1.12-38.34L-1.12-38.34Q-1.54-38.34-1.54-38.85L-1.54-38.85L-1.54-38.85Q-1.54-39.62-0.74-40.96L-0.74-40.96L-0.74-40.96Q0.06-42.30 0.96-43.26L0.96-43.26L0.96-43.26Q3.14-45.57 6.91-45.57ZM28.61-24.13L28.61-24.13L28.61-24.13Q26.94-24.06 26.21-24.03L26.21-24.03L26.21-24.03Q25.47-24 25.47-24.38L25.47-24.38L25.47-24.38Q25.47-24.77 25.86-25.15L25.86-25.15L25.86-25.15Q29.95-28.93 39.68-28.93L39.68-28.93L39.68-28.93Q43.01-28.93 44.93-28.35L44.93-28.35L45.57-28.16L45.57-28.16Q46.34-27.84 46.34-27.46L46.34-27.46L46.34-27.46Q46.34-27.14 45.89-26.94L45.89-26.94L45.89-26.94Q44.16-26.43 42.56-25.31L42.56-25.31L42.56-25.31Q40.96-24.19 40.96-23.74L40.96-23.74L41.34-23.30L41.34-23.30Q43.39-22.14 44.51-19.65L44.51-19.65L44.51-19.65Q45.63-17.15 45.76-15.23L45.76-15.23L45.89-13.25L45.89-13.25Q45.89-6.91 42.37-2.82L42.37-2.82L42.37-2.82Q38.85 1.28 32.77 1.28L32.77 1.28L32.77 1.28Q29.70 1.28 27.46 0.19L27.46 0.19L27.46 0.19Q25.22-0.90 24.16-2.27L24.16-2.27L24.16-2.27Q23.10-3.65 22.46-5.38L22.46-5.38L22.46-5.38Q21.70-7.74 21.70-10.27L21.70-10.27L21.70-10.27Q21.70-12.80 22.56-15.36L22.56-15.36L22.56-15.36Q23.42-17.92 24.54-19.14L24.54-19.14L24.54-19.14Q25.66-20.35 27.07-21.12L27.07-21.12L27.07-21.12Q28.86-22.08 29.95-22.08L29.95-22.08L29.95-22.08Q31.04-22.08 31.04-21.63L31.04-21.63L30.66-20.99L30.66-20.99Q29.25-19.33 28.64-16.64L28.64-16.64L28.64-16.64Q28.03-13.95 28.03-11.87L28.03-11.87L28.03-11.87Q28.03-9.79 28.54-7.74L28.54-7.74L28.54-7.74Q29.06-5.70 29.70-4.70L29.70-4.70L29.70-4.70Q30.34-3.71 31.17-3.20L31.17-3.20L31.17-3.20Q32.38-2.43 33.73-2.43L33.73-2.43L33.73-2.43Q35.07-2.43 36.35-3.49L36.35-3.49L36.35-3.49Q37.63-4.54 38.21-6.27L38.21-6.27L38.21-6.27Q39.36-9.47 39.36-12.86L39.36-12.86L39.36-12.86Q39.36-18.24 36.64-21.18L36.64-21.18L36.64-21.18Q33.92-24.13 28.61-24.13ZM62.02-28.74L62.02-28.74L62.02-28.74Q63.17-28.74 64.10-28.45L64.10-28.45L64.10-28.45Q65.02-28.16 65.09-28.16L65.09-28.16L65.47-28.48L65.22-35.46L65.22-35.46Q65.09-37.25 64.45-38.53L64.45-38.53L64.45-38.53Q63.81-39.81 63.30-40.19L63.30-40.19L62.72-40.51L62.72-40.51Q62.34-40.77 62.34-41.09L62.34-41.09L62.34-41.09Q62.34-42.05 65.31-43.33L65.31-43.33L65.31-43.33Q68.29-44.61 69.95-44.61L69.95-44.61L69.95-44.61Q71.62-44.61 71.74-43.90L71.74-43.90L71.74-43.90Q72.06-41.73 72.06-35.62L72.06-35.62L72.06-35.62Q72.06-29.50 71.78-23.62L71.78-23.62L71.78-23.62Q71.49-17.73 71.49-10.27L71.49-10.27L71.49-10.27Q71.49-2.82 72.45-0.90L72.45-0.90L72.45-0.90Q72.70-0.45 72.70-0.06L72.70-0.06L72.70-0.06Q72.70 0.90 69.95 0.90L69.95 0.90L69.95 0.90Q64.70 0.90 64.70-1.60L64.70-1.60L64.70-1.60Q64.58-2.62 64.58-4.77L64.58-4.77L64.58-4.77Q64.58-6.91 64.99-12.77L64.99-12.77L64.99-12.77Q65.41-18.62 65.41-21.79L65.41-21.79L65.41-21.79Q65.41-24.96 62.24-24.96L62.24-24.96L62.24-24.96Q59.07-24.96 57.41-21.25L57.41-21.25L57.41-21.25Q55.74-17.54 55.74-13.82L55.74-13.82L55.74-13.82Q55.74-5.95 59.71-5.95L59.71-5.95L59.71-5.95Q60.29-5.95 60.83-6.18L60.83-6.18L60.83-6.18Q61.38-6.40 61.50-6.40L61.50-6.40L61.50-6.40Q62.02-6.40 62.30-5.76L62.30-5.76L62.30-5.76Q62.59-5.12 62.59-4.48L62.59-4.48L62.59-4.48Q62.59-2.30 60.86-0.80L60.86-0.80L60.86-0.80Q59.14 0.70 56.64 0.70L56.64 0.70L56.64 0.70Q52.80 0.70 50.85-2.66L50.85-2.66L50.85-2.66Q48.90-6.02 48.90-11.01L48.90-11.01L48.90-11.01Q48.90-17.34 51.90-22.78L51.90-22.78L51.90-22.78Q53.44-25.47 56.06-27.10L56.06-27.10L56.06-27.10Q58.69-28.74 62.02-28.74ZM96.96-19.20L96.96-19.20L96.83-11.01L96.83-11.01Q96.83-2.50 98.69-0.77L98.69-0.77L98.69-0.77Q98.94-0.51 98.94-0.19L98.94-0.19L98.94-0.19Q98.94 0.77 94.82 0.77L94.82 0.77L94.82 0.77Q90.69 0.77 90.43-1.66L90.43-1.66L90.43-1.66Q90.37-2.24 90.37-4.03L90.37-4.03L90.62-14.27L90.62-14.27Q90.62-14.72 90.11-14.72L90.11-14.72L90.11-14.72Q87.04-14.72 84.35-12.99L84.35-12.99L84.35-12.99Q81.66-11.26 81.66-8.58L81.66-8.58L81.66-8.58Q81.66-7.17 82.43-6.21L82.43-6.21L82.43-6.21Q83.20-5.25 84.32-5.25L84.32-5.25L84.32-5.25Q85.44-5.25 86.18-5.70L86.18-5.70L86.18-5.70Q86.91-6.14 87.04-6.21L87.04-6.21L87.04-6.21Q88.13-6.08 88.13-3.94L88.13-3.94L88.13-3.94Q88.13-1.79 86.14-0.48L86.14-0.48L86.14-0.48Q84.16 0.83 81.98 0.83L81.98 0.83L81.98 0.83Q79.81 0.83 78.24 0.06L78.24 0.06L78.24 0.06Q76.67-0.70 75.97-1.66L75.97-1.66L75.97-1.66Q75.26-2.62 74.82-3.84L74.82-3.84L74.82-3.84Q74.37-5.31 74.37-6.40L74.37-6.40L74.37-6.40Q74.37-10.88 77.18-13.57L77.18-13.57L77.18-13.57Q80-16.26 84.42-17.41L84.42-17.41L84.42-17.41Q90.24-18.56 90.50-19.52L90.50-19.52L90.50-19.52Q90.69-20.22 90.69-21.89L90.69-21.89L90.69-21.89Q90.69-25.28 87.23-25.28L87.23-25.28L87.23-25.28Q85.76-25.28 84.61-24.35L84.61-24.35L84.61-24.35Q83.46-23.42 83.46-22.02L83.46-22.02L83.84-20.48L83.84-20.48Q83.71-19.39 81.54-19.20L81.54-19.20L80.83-19.14L80.83-19.14Q78.91-19.14 77.79-20.10L77.79-20.10L77.79-20.10Q76.67-21.06 76.67-22.66L76.67-22.66L76.67-22.66Q76.67-23.68 77.34-24.93L77.34-24.93L77.34-24.93Q78.02-26.18 79.04-26.94L79.04-26.94L79.04-26.94Q80.06-27.71 82.21-28.32L82.21-28.32L82.21-28.32Q84.35-28.93 86.34-28.93L86.34-28.93L86.34-28.93Q88.32-28.93 89.41-28.80L89.41-28.80L89.41-28.80Q90.50-28.67 92.38-28.19L92.38-28.19L92.38-28.19Q94.27-27.71 95.52-26.37L95.52-26.37L95.52-26.37Q96.77-25.02 96.86-23.52L96.86-23.52L96.86-23.52Q96.96-22.02 96.96-19.20ZM112.19 17.73L112.19 17.73L112.19 17.73Q112.19 18.50 111.42 18.50L111.42 18.50L111.36 18.50L111.36 18.50Q109.25 18.50 106.59 17.02L106.59 17.02L106.59 17.02Q103.94 15.55 103.94 13.63L103.94 13.63L103.94 13.63Q103.94 11.71 106.37 6.94L106.37 6.94L106.37 6.94Q108.80 2.18 108.80 0.58L108.80 0.58L108.80 0.58Q108.80-1.15 107.14-5.63L107.14-5.63L107.14-5.63Q105.02-11.46 103.78-15.10L103.78-15.10L103.78-15.10Q102.53-18.75 101.09-21.54L101.09-21.54L101.09-21.54Q99.65-24.32 99.01-24.83L99.01-24.83L98.37-25.28L98.37-25.28Q97.66-25.66 97.66-26.11L97.66-26.11L97.66-26.11Q97.66-27.01 100.45-27.94L100.45-27.94L100.45-27.94Q103.23-28.86 105.34-28.86L105.34-28.86L105.34-28.86Q106.30-28.86 106.94-27.33L106.94-27.33L106.94-27.33Q108.10-24.32 109.44-19.01L109.44-19.01L109.44-19.01Q112.70-8.13 113.54-8.13L113.54-8.13L113.54-8.13Q114.11-8.13 115.87-12.61L115.87-12.61L115.87-12.61Q117.63-17.09 117.63-19.84L117.63-19.84L117.63-19.84Q117.63-24.64 114.82-25.47L114.82-25.47L114.82-25.47Q114.18-25.60 114.18-26.11L114.18-26.11L114.18-26.11Q114.18-27.26 117.18-28.32L117.18-28.32L117.18-28.32Q120.19-29.38 122.62-29.38L122.62-29.38L122.62-29.38Q124.74-29.38 124.74-26.62L124.74-26.62L124.74-26.62Q124.74-24.51 123.84-21.70L123.84-21.70L123.84-21.70Q122.94-18.88 122.18-17.25L122.18-17.25L122.18-17.25Q121.41-15.62 118.37-9.70L118.37-9.70L118.37-9.70Q115.33-3.78 113.34 0.70L113.34 0.70L113.34 0.70Q111.17 6.08 111.17 11.65L111.17 11.65L111.17 11.65Q111.17 14.59 111.68 16.06L111.68 16.06L111.68 16.06Q112.19 17.54 112.19 17.73ZM147.52-28.35L147.52-28.35L147.52-28.35Q147.52-8.51 148.42-2.37L148.42-2.37L148.42-2.37Q148.42-0.83 145.47 0.16L145.47 0.16L145.47 0.16Q142.53 1.15 140.61 1.15L140.61 1.15L140.61 1.15Q138.69 1.15 138.69 0.58L138.69 0.58L138.69 0.58Q138.69 0.19 138.88-0.38L138.88-0.38L138.88-0.38Q140.10-3.07 140.10-22.02L140.10-22.02L140.10-22.02Q140.10-39.94 138.56-41.92L138.56-41.92L138.30-42.30L138.30-42.30Q137.92-42.62 137.92-43.10L137.92-43.10L137.92-43.10Q137.92-43.58 138.62-43.90L138.62-43.90L138.62-43.90Q139.58-44.48 142.05-45.06L142.05-45.06L142.05-45.06Q144.51-45.63 146.50-45.63L146.50-45.63L146.50-45.63Q148.48-45.63 148.48-44.74L148.48-44.74L148.48-44.54L148.48-44.54Q147.71-37.89 147.52-28.35ZM182.27-0.06L182.27-0.06L178.62-0.13L178.62-0.13Q177.86-0.13 177.09-0.13L177.09-0.13L165.44 0.45L165.44 0.45Q164.48 0.45 164.48-0.19L164.48-0.19L164.48-0.19Q164.48-0.38 164.67-1.09L164.67-1.09L164.67-1.09Q165.31-2.56 165.60-10.43L165.60-10.43L165.60-10.43Q165.89-18.30 165.89-24.80L165.89-24.80L165.89-24.80Q165.89-31.30 165.63-35.33L165.63-35.33L165.63-35.33Q165.25-41.41 164.35-42.62L164.35-42.62L164.35-42.62Q163.65-43.52 163.65-43.78L163.65-43.78L163.65-43.78Q163.65-44.80 167.10-45.57L167.10-45.57L167.10-45.57Q170.56-46.34 172.06-46.34L172.06-46.34L172.06-46.34Q173.57-46.34 173.95-46.18L173.95-46.18L173.95-46.18Q174.34-46.02 174.34-45.50L174.34-45.50L174.34-45.50Q174.34-44.99 174.08-42.24L174.08-42.24L174.08-42.24Q173.44-34.11 173.44-23.33L173.44-23.33L173.44-23.33Q173.44-12.54 173.95-6.08L173.95-6.08L173.95-6.08Q173.95-5.38 175.17-4.86L175.17-4.86L175.17-4.86Q176.38-4.35 178.18-4.35L178.18-4.35L178.18-4.35Q184.45-4.35 184.45-14.02L184.45-14.02L184.45-14.02Q184.45-16.70 184.16-17.34L184.16-17.34L184.16-17.34Q183.87-17.98 183.87-18.18L183.87-18.18L183.87-18.18Q183.87-18.82 184.77-18.82L184.77-18.82L184.77-18.82Q185.47-18.82 186.66-18.11L186.66-18.11L186.66-18.11Q187.84-17.41 188.61-16.35L188.61-16.35L188.61-16.35Q189.38-15.30 190.02-13.02L190.02-13.02L190.02-13.02Q190.66-10.75 190.66-7.68L190.66-7.68L190.66-7.68Q190.66-0.06 188.80-0.06L188.80-0.06L188.80-0.06Q185.54-0.06 182.27-0.06ZM199.10-16.26L199.10-16.26L199.17-14.66L199.17-14.66Q199.17-14.27 199.68-14.27L199.68-14.27L199.68-14.27Q201.73-14.46 203.26-15.33L203.26-15.33L203.26-15.33Q204.80-16.19 205.57-17.28L205.57-17.28L205.57-17.28Q207.10-19.65 207.23-21.38L207.23-21.38L207.30-22.14L207.30-22.14Q207.30-25.60 204.54-25.60L204.54-25.60L204.54-25.60Q202.50-25.60 201.22-23.81L201.22-23.81L201.22-23.81Q199.10-20.99 199.10-16.26ZM213.06-7.74L213.06-7.74L213.06-7.74Q213.06-5.31 212.06-3.49L212.06-3.49L212.06-3.49Q211.07-1.66 209.82-0.80L209.82-0.80L209.82-0.80Q208.58 0.06 206.91 0.58L206.91 0.58L206.91 0.58Q204.80 1.22 202.88 1.22L202.88 1.22L202.88 1.22Q197.50 1.22 194.94-2.82L194.94-2.82L194.94-2.82Q192.38-6.85 192.38-13.09L192.38-13.09L192.38-13.09Q192.38-19.33 195.55-24.19L195.55-24.19L195.55-24.19Q198.72-29.06 205.06-29.06L205.06-29.06L205.06-29.06Q210.82-29.06 212.86-25.02L212.86-25.02L212.86-25.02Q213.70-23.49 213.70-22.11L213.70-22.11L213.70-22.11Q213.70-20.74 213.57-19.94L213.57-19.94L213.57-19.94Q213.44-19.14 212.67-17.54L212.67-17.54L212.67-17.54Q211.90-15.94 210.62-14.66L210.62-14.66L210.62-14.66Q209.34-13.38 206.59-12.22L206.59-12.22L206.59-12.22Q203.84-11.07 200.13-10.69L200.13-10.69L200.13-10.69Q199.62-10.69 199.62-10.24L199.62-10.24L199.62-10.24Q199.62-9.66 200.03-8.54L200.03-8.54L200.03-8.54Q200.45-7.42 200.96-6.66L200.96-6.66L200.96-6.66Q202.37-4.86 205.12-4.86L205.12-4.86L205.12-4.86Q207.87-4.86 209.79-6.66L209.79-6.66L209.79-6.66Q210.82-7.62 211.46-9.02L211.46-9.02L211.46-9.02Q211.71-9.54 212.13-9.54L212.13-9.54L212.13-9.54Q212.54-9.54 212.80-8.83L212.80-8.83L212.80-8.83Q213.06-8.13 213.06-7.74ZM237.06-19.20L237.06-19.20L236.93-11.01L236.93-11.01Q236.93-2.50 238.78-0.77L238.78-0.77L238.78-0.77Q239.04-0.51 239.04-0.19L239.04-0.19L239.04-0.19Q239.04 0.77 234.91 0.77L234.91 0.77L234.91 0.77Q230.78 0.77 230.53-1.66L230.53-1.66L230.53-1.66Q230.46-2.24 230.46-4.03L230.46-4.03L230.72-14.27L230.72-14.27Q230.72-14.72 230.21-14.72L230.21-14.72L230.21-14.72Q227.14-14.72 224.45-12.99L224.45-12.99L224.45-12.99Q221.76-11.26 221.76-8.58L221.76-8.58L221.76-8.58Q221.76-7.17 222.53-6.21L222.53-6.21L222.53-6.21Q223.30-5.25 224.42-5.25L224.42-5.25L224.42-5.25Q225.54-5.25 226.27-5.70L226.27-5.70L226.27-5.70Q227.01-6.14 227.14-6.21L227.14-6.21L227.14-6.21Q228.22-6.08 228.22-3.94L228.22-3.94L228.22-3.94Q228.22-1.79 226.24-0.48L226.24-0.48L226.24-0.48Q224.26 0.83 222.08 0.83L222.08 0.83L222.08 0.83Q219.90 0.83 218.34 0.06L218.34 0.06L218.34 0.06Q216.77-0.70 216.06-1.66L216.06-1.66L216.06-1.66Q215.36-2.62 214.91-3.84L214.91-3.84L214.91-3.84Q214.46-5.31 214.46-6.40L214.46-6.40L214.46-6.40Q214.46-10.88 217.28-13.57L217.28-13.57L217.28-13.57Q220.10-16.26 224.51-17.41L224.51-17.41L224.51-17.41Q230.34-18.56 230.59-19.52L230.59-19.52L230.59-19.52Q230.78-20.22 230.78-21.89L230.78-21.89L230.78-21.89Q230.78-25.28 227.33-25.28L227.33-25.28L227.33-25.28Q225.86-25.28 224.70-24.35L224.70-24.35L224.70-24.35Q223.55-23.42 223.55-22.02L223.55-22.02L223.94-20.48L223.94-20.48Q223.81-19.39 221.63-19.20L221.63-19.20L220.93-19.14L220.93-19.14Q219.01-19.14 217.89-20.10L217.89-20.10L217.89-20.10Q216.77-21.06 216.77-22.66L216.77-22.66L216.77-22.66Q216.77-23.68 217.44-24.93L217.44-24.93L217.44-24.93Q218.11-26.18 219.14-26.94L219.14-26.94L219.14-26.94Q220.16-27.71 222.30-28.32L222.30-28.32L222.30-28.32Q224.45-28.93 226.43-28.93L226.43-28.93L226.43-28.93Q228.42-28.93 229.50-28.80L229.50-28.80L229.50-28.80Q230.59-28.67 232.48-28.19L232.48-28.19L232.48-28.19Q234.37-27.71 235.62-26.37L235.62-26.37L235.62-26.37Q236.86-25.02 236.96-23.52L236.96-23.52L236.96-23.52Q237.06-22.02 237.06-19.20ZM260.80-22.02L260.48-17.15L260.74-14.91L260.74-14.91Q260.74-13.70 258.43-13.70L258.43-13.70L258.43-13.70Q253.76-13.70 253.76-17.22L253.76-17.22L253.76-17.22Q253.76-18.05 254.21-19.52L254.21-19.52L254.21-19.52Q254.66-20.99 254.66-22.08L254.66-22.08L254.66-22.08Q254.66-23.17 254.02-23.97L254.02-23.97L254.02-23.97Q253.38-24.77 252.16-24.77L252.16-24.77L252.16-24.77Q250.94-24.77 250.08-23.90L250.08-23.90L250.08-23.90Q249.22-23.04 249.02-22.14L249.02-22.14L248.77-21.25L248.77-21.25Q248.38-19.26 248.38-14.62L248.38-14.62L248.38-14.62Q248.38-9.98 248.51-7.33L248.51-7.33L248.51-7.33Q248.64-4.67 248.77-3.68L248.77-3.68L248.77-3.68Q248.90-2.69 248.90-2.50L248.90-2.50L248.90-2.50Q248.90-0.90 246.91 0.10L246.91 0.10L246.91 0.10Q244.93 1.09 242.94 1.09L242.94 1.09L242.94 1.09Q240.96 1.09 240.96 0.26L240.96 0.26L241.28-1.73L241.28-1.73Q242.18-7.30 242.18-16.26L242.18-16.26L242.18-16.26Q242.18-25.22 241.54-28.42L241.54-28.42L241.54-28.42Q241.54-29.18 242.88-29.18L242.88-29.18L242.88-29.18Q246.34-29.18 247.49-26.82L247.49-26.82L247.49-26.82Q247.55-26.56 247.71-26.56L247.71-26.56L247.71-26.56Q247.87-26.56 248.58-27.14L248.58-27.14L248.58-27.14Q250.69-28.86 253.57-28.86L253.57-28.86L253.57-28.86Q255.36-28.86 257.15-28.16L257.15-28.16L257.15-28.16Q260.80-26.69 260.80-22.02L260.80-22.02ZM263.68 0.45L263.68 0.45L263.68 0.45Q264.83-6.46 264.83-16.13L264.83-16.13L264.83-16.13Q264.83-25.79 264.26-28.67L264.26-28.67L264.26-28.67Q264.26-29.50 266.18-29.50L266.18-29.50L266.18-29.50Q269.12-29.50 270.08-27.26L270.08-27.26L270.08-27.26Q270.14-27.07 270.40-27.07L270.40-27.07L270.40-27.07Q270.66-27.07 270.78-27.20L270.78-27.20L270.78-27.20Q272.77-29.25 276.93-29.25L276.93-29.25L276.93-29.25Q281.09-29.25 283.52-27.14L283.52-27.14L283.52-27.14Q285.95-25.02 285.95-20.99L285.95-20.99L285.95-20.99Q285.95-18.56 285.54-14.08L285.54-14.08L285.54-14.08Q285.12-9.60 285.12-7.42L285.12-7.42L285.12-7.42Q285.12-2.24 286.85 0.06L286.85 0.06L286.85 0.06Q287.10 0.38 287.10 0.70L287.10 0.70L287.10 0.70Q287.10 1.54 285.31 1.54L285.31 1.54L285.31 1.54Q277.38 1.54 277.38-5.50L277.38-5.50L277.38-5.50Q277.38-8.19 278.59-12.99L278.59-12.99L278.59-12.99Q279.81-17.79 279.81-20.29L279.81-20.29L279.81-20.29Q279.81-25.41 275.58-25.41L275.58-25.41L275.58-25.41Q273.54-25.41 272.48-24.19L272.48-24.19L272.48-24.19Q271.42-22.98 271.30-21.41L271.30-21.41L271.30-21.41Q271.17-19.84 271.17-15.49L271.17-15.49L271.17-15.49Q271.17-8.83 271.62-3.90L271.62-3.90L271.74-2.50L271.74-2.50Q271.74-0.70 269.41 0.29L269.41 0.29L269.41 0.29Q267.07 1.28 265.38 1.28L265.38 1.28L265.38 1.28Q263.68 1.28 263.68 0.45ZM295.30-16.26L295.30-16.26L295.36-14.66L295.36-14.66Q295.36-14.27 295.87-14.27L295.87-14.27L295.87-14.27Q297.92-14.46 299.46-15.33L299.46-15.33L299.46-15.33Q300.99-16.19 301.76-17.28L301.76-17.28L301.76-17.28Q303.30-19.65 303.42-21.38L303.42-21.38L303.49-22.14L303.49-22.14Q303.49-25.60 300.74-25.60L300.74-25.60L300.74-25.60Q298.69-25.60 297.41-23.81L297.41-23.81L297.41-23.81Q295.30-20.99 295.30-16.26ZM309.25-7.74L309.25-7.74L309.25-7.74Q309.25-5.31 308.26-3.49L308.26-3.49L308.26-3.49Q307.26-1.66 306.02-0.80L306.02-0.80L306.02-0.80Q304.77 0.06 303.10 0.58L303.10 0.58L303.10 0.58Q300.99 1.22 299.07 1.22L299.07 1.22L299.07 1.22Q293.70 1.22 291.14-2.82L291.14-2.82L291.14-2.82Q288.58-6.85 288.58-13.09L288.58-13.09L288.58-13.09Q288.58-19.33 291.74-24.19L291.74-24.19L291.74-24.19Q294.91-29.06 301.25-29.06L301.25-29.06L301.25-29.06Q307.01-29.06 309.06-25.02L309.06-25.02L309.06-25.02Q309.89-23.49 309.89-22.11L309.89-22.11L309.89-22.11Q309.89-20.74 309.76-19.94L309.76-19.94L309.76-19.94Q309.63-19.14 308.86-17.54L308.86-17.54L308.86-17.54Q308.10-15.94 306.82-14.66L306.82-14.66L306.82-14.66Q305.54-13.38 302.78-12.22L302.78-12.22L302.78-12.22Q300.03-11.07 296.32-10.69L296.32-10.69L296.32-10.69Q295.81-10.69 295.81-10.24L295.81-10.24L295.81-10.24Q295.81-9.66 296.22-8.54L296.22-8.54L296.22-8.54Q296.64-7.42 297.15-6.66L297.15-6.66L297.15-6.66Q298.56-4.86 301.31-4.86L301.31-4.86L301.31-4.86Q304.06-4.86 305.98-6.66L305.98-6.66L305.98-6.66Q307.01-7.62 307.65-9.02L307.65-9.02L307.65-9.02Q307.90-9.54 308.32-9.54L308.32-9.54L308.32-9.54Q308.74-9.54 308.99-8.83L308.99-8.83L308.99-8.83Q309.25-8.13 309.25-7.74ZM325.57-28.74L325.57-28.74L325.57-28.74Q326.72-28.74 327.65-28.45L327.65-28.45L327.65-28.45Q328.58-28.16 328.64-28.16L328.64-28.16L329.02-28.48L328.77-35.46L328.77-35.46Q328.64-37.25 328.00-38.53L328.00-38.53L328.00-38.53Q327.36-39.81 326.85-40.19L326.85-40.19L326.27-40.51L326.27-40.51Q325.89-40.77 325.89-41.09L325.89-41.09L325.89-41.09Q325.89-42.05 328.86-43.33L328.86-43.33L328.86-43.33Q331.84-44.61 333.50-44.61L333.50-44.61L333.50-44.61Q335.17-44.61 335.30-43.90L335.30-43.90L335.30-43.90Q335.62-41.73 335.62-35.62L335.62-35.62L335.62-35.62Q335.62-29.50 335.33-23.62L335.33-23.62L335.33-23.62Q335.04-17.73 335.04-10.27L335.04-10.27L335.04-10.27Q335.04-2.82 336.00-0.90L336.00-0.90L336.00-0.90Q336.26-0.45 336.26-0.06L336.26-0.06L336.26-0.06Q336.26 0.90 333.50 0.90L333.50 0.90L333.50 0.90Q328.26 0.90 328.26-1.60L328.26-1.60L328.26-1.60Q328.13-2.62 328.13-4.77L328.13-4.77L328.13-4.77Q328.13-6.91 328.54-12.77L328.54-12.77L328.54-12.77Q328.96-18.62 328.96-21.79L328.96-21.79L328.96-21.79Q328.96-24.96 325.79-24.96L325.79-24.96L325.79-24.96Q322.62-24.96 320.96-21.25L320.96-21.25L320.96-21.25Q319.30-17.54 319.30-13.82L319.30-13.82L319.30-13.82Q319.30-5.95 323.26-5.95L323.26-5.95L323.26-5.95Q323.84-5.95 324.38-6.18L324.38-6.18L324.38-6.18Q324.93-6.40 325.06-6.40L325.06-6.40L325.06-6.40Q325.57-6.40 325.86-5.76L325.86-5.76L325.86-5.76Q326.14-5.12 326.14-4.48L326.14-4.48L326.14-4.48Q326.14-2.30 324.42-0.80L324.42-0.80L324.42-0.80Q322.69 0.70 320.19 0.70L320.19 0.70L320.19 0.70Q316.35 0.70 314.40-2.66L314.40-2.66L314.40-2.66Q312.45-6.02 312.45-11.01L312.45-11.01L312.45-11.01Q312.45-17.34 315.46-22.78L315.46-22.78L315.46-22.78Q316.99-25.47 319.62-27.10L319.62-27.10L319.62-27.10Q322.24-28.74 325.57-28.74Z" fill="#dcc500"></path></g></g><style>text {
  font-size: 64px;
  font-family: Arial Black;
  dominant-baseline: central;
  text-anchor: middle;
}</style></svg>